<svg xmlns="http://www.w3.org/2000/svg" viewBox="0 0 31.15 31.14" xmlns:v="https://vecta.io/nano"><path d="M15.58 0l7.36.16c1.65.16 3.22.6 4.59 1.59 1.87 1.35 2.9 3.2 3.31 5.44.25 1.38.28 2.78.29 4.17.03 3.42.07 6.85-.05 10.27-.05 1.28-.19 2.56-.62 3.77-.98 2.74-2.9 4.46-5.69 5.22-1.62.44-3.29.46-4.95.47-3.48.03-6.97.07-10.45-.06-1.25-.05-2.49-.19-3.67-.62-2.72-.99-4.44-2.89-5.19-5.67-.44-1.63-.46-3.31-.47-4.98C.01 16.3-.03 12.84.1 9.38c.05-1.26.19-2.51.62-3.7C1.69 2.97 3.6 1.25 6.38.49 8.08.03 9.83.04 11.57.01c1.34-.02 2.68 0 4.01 0zm12.75 15.56v-3.94c-.03-1.34-.01-2.68-.26-4-.36-1.94-1.38-3.37-3.22-4.16-1.01-.43-2.09-.55-3.18-.59-3.4-.13-6.8-.09-10.21-.06-1.28.01-2.56.02-3.83.26-1.94.37-3.37 1.38-4.16 3.22-.43 1.01-.54 2.09-.58 3.18-.12 3.4-.09 6.8-.06 10.21.01 1.28.02 2.56.26 3.83.37 1.94 1.39 3.37 3.23 4.15 1 .42 2.07.54 3.15.58 3.41.13 6.83.09 10.24.06 1.27-.01 2.54-.02 3.79-.25 1.2-.23 2.25-.71 3.11-1.6 1.03-1.06 1.44-2.37 1.57-3.79.22-2.36.13-4.73.14-7.09zm-4.76-.01a8.01 8.01 0 0 1-7.98 8 8.01 8.01 0 0 1-8-7.98 8.01 8.01 0 0 1 7.98-8 8.01 8.01 0 0 1 8 7.98zm-7.95-5.18c-2.83-.05-5.16 2.24-5.23 5.12-.06 2.84 2.25 5.2 5.14 5.25 2.83.05 5.16-2.24 5.23-5.12.06-2.84-2.25-5.2-5.14-5.25zm8.27-4.99c1.03 0 1.87.83 1.87 1.87 0 1.03-.83 1.87-1.87 1.87a1.86 1.86 0 0 1-1.87-1.87c0-1.03.83-1.87 1.87-1.87z"/></svg>