<svg xmlns="http://www.w3.org/2000/svg" viewBox="0 0 31.32 30.82" xmlns:v="https://vecta.io/nano"><path d="M18.58 22.82l2.43-.57c2.6-.78 4.05-2.58 4.49-5.22.22-1.33.29-2.67-.11-3.99-.23-.76-.59-1.45-1.11-2.05a.49.49 0 0 1-.12-.56c.37-1.24.26-2.46-.18-3.66-.04-.12-.26-.27-.37-.26-.52.07-1.07.13-1.55.33-.76.32-1.47.77-2.21 1.14-.16.08-.38.13-.54.09a15.28 15.28 0 0 0-7.24 0 .86.86 0 0 1-.57-.09c-1.04-.64-2.09-1.25-3.33-1.44-.67-.1-.74-.07-.92.57-.33 1.13-.38 2.27-.04 3.42.03.11 0 .28-.06.36-1.41 1.67-1.65 3.62-1.37 5.69.18 1.33.56 2.57 1.4 3.64 1.07 1.35 2.54 1.99 4.17 2.33l1.42.25c-.52.57-.79 1.21-.92 1.92-.02.1-.15.22-.25.27-1.74.75-3.3.25-4.31-1.37-.52-.83-1.21-1.45-2.21-1.62-.19-.03-.4-.02-.59.02-.4.09-.45.3-.16.59a1.35 1.35 0 0 0 .35.28 3.57 3.57 0 0 1 1.63 1.98c.61 1.83 2.39 2.61 4.31 2.43l1.16-.14-.01 3.01c-.02.55-.55.81-1.15.6-1.36-.46-2.64-1.09-3.81-1.93C2.15 25.45-.15 20.88 0 15.16.21 7.8 5.67 1.55 12.91.25c8.42-1.52 16.51 4.09 18.12 12.55 1.47 7.7-2.87 15.31-10.19 17.9-.88.31-1.31 0-1.3-.93l.02-3.92c0-1.12-.17-2.18-.98-3.03z"/></svg>