<svg xmlns="http://www.w3.org/2000/svg" viewBox="0 0 34.29 30.82" xmlns:v="https://vecta.io/nano"><path d="M0 30.76l2.43-2.62 6.81-7.22 2.96-3.12c.28-.28.21-.47.01-.74L5.33 7.5.2.34C.15.27.11.18.05.05L.46.01 11.75 0c.36 0 .56.13.76.41l6.66 9.29c.06.09.14.17.26.31l1.82-1.92 5.9-6.27L28.58.28c.13-.13.36-.25.54-.25l3.83-.01c.07 0 .15.03.33.07L21.36 12.76l12.92 18.06h-1.05c-3.57 0-7.13-.01-10.7 0-.41 0-.57-.23-.77-.49l-6.67-9.29-.66-.9-2 2.09-7.78 8.27c-.17.17-.47.3-.72.3-1.16.03-2.32.01-3.48 0-.11 0-.22-.02-.46-.04zm28.04-3.21l-.52-.75-6.23-8.64-9.86-13.74c-.64-.91-1.28-1.32-2.38-1.19-.88.1-1.78.02-2.77.02.11.19.17.3.24.4l9.68 13.44 6.83 9.48c.53.75 1.05 1.1 1.98 1.01.96-.09 1.95-.02 3.02-.02z"/></svg>