<svg xmlns="http://www.w3.org/2000/svg" viewBox="0 0 14.17 30.14" xmlns:v="https://vecta.io/nano"><path d="M9.46 9.7h3.88c.59-.01.81.22.75.8l-.35 3.74c-.05.72-.36.95-1.06.91-.97-.06-1.95-.01-3.02-.01l-.07.91v12.96c0 1.03-.1 1.13-1.15 1.13-1.42 0-2.84-.04-4.26.02-.8.03-1.1-.24-1.1-1.04l.06-12.11c.02-1.88.05-1.88-1.84-1.89-.22 0-.49.08-.66-.02-.24-.13-.58-.39-.59-.6a55.78 55.78 0 0 1 0-4.09c0-.22.35-.56.58-.6.54-.09 1.11-.07 1.67-.02.66.06.89-.15.86-.84-.05-1.11-.03-2.23.02-3.34C3.31 2.44 5.5.21 8.65.06L13.41 0c.52 0 .76.16.75.72v3.84c0 .55-.22.74-.75.72-.75-.03-1.51-.03-2.26 0-1.02.05-1.52.52-1.66 1.53-.04.33-.03.67-.04 1v1.88z"/></svg>