<svg xmlns="http://www.w3.org/2000/svg" viewBox="0 0 30.82 30.82" xmlns:v="https://vecta.io/nano"><path d="M0 28.11V2.71c.03-.08.07-.16.08-.25C.18 1.32 1.16.27 2.28.09L2.71 0h25.4c.08.03.16.07.25.08 1.14.1 2.2 1.08 2.37 2.2.02.14.06.29.09.43v25.4c-.03.08-.07.16-.08.25-.1 1.14-1.08 2.2-2.2 2.37-.14.02-.29.06-.43.09H2.71c-.08-.03-.16-.07-.25-.08-1.14-.1-2.2-1.08-2.37-2.2-.02-.14-.06-.29-.09-.43zm16.94-14.9v-1.02c0-.58-.32-.9-.88-.9h-3.37c-.58 0-.91.32-.91.91v14.32c0 .61.33.94.95.94h3.25c.65 0 .96-.31.96-.95v-7.28c0-.83.18-1.61.54-2.35.47-.96 1.36-1.46 2.48-1.39 1.03.06 1.75.62 2.11 1.65.25.7.29 1.43.29 2.16l-.02 4.93.02 2.38c.02.59.33.86.93.86h3.37c.65 0 .98-.32.98-.98l-.06-8.72c-.02-1.18-.2-2.35-.65-3.46-.48-1.19-1.23-2.17-2.43-2.7-1.78-.77-3.6-.75-5.42-.12-.88.3-1.55.9-2.14 1.72zM4.43 19.39v7.07c0 .69.32 1.01 1.01 1.02h3.04c.8 0 1.11-.31 1.11-1.11v-7.94-6.11c0-.69-.33-1.02-1.01-1.02H5.42c-.68 0-.99.31-.99.99v7.1zm5.89-12.7c0-1.83-1.5-3.34-3.32-3.32A3.29 3.29 0 0 0 3.69 6.7C3.68 8.53 5.2 10.01 7 10.02a3.35 3.35 0 0 0 3.33-3.33z"/></svg>